<svg width="328" height="184" viewBox="0 0 328 184" fill="none" xmlns="http://www.w3.org/2000/svg">
<g clip-path="url(#clip0_881_58763)">
<path d="M46.6368 100.845C31.8557 148.012 120.473 187.138 179.984 174.008C239.494 160.878 281.493 114.189 267.189 81.979C252.886 49.7694 205.415 62.0676 161.066 67.2548C116.717 72.4419 61.4178 53.6788 46.6368 100.845Z" fill="#D1D1D1"/>
<path opacity="0.5" d="M99 121.078C99 140.132 83.5538 155.578 64.5 155.578C45.4462 155.578 30 140.132 30 121.078C30 102.024 45.4462 86.5781 64.5 86.5781C83.5538 86.5781 99 102.024 99 121.078Z" fill="#D1D1D1"/>
<mask id="mask0_881_58763" style="mask-type:alpha" maskUnits="userSpaceOnUse" x="43" y="-4" width="291" height="181">
<path d="M44.8561 95.61C29.1553 145.552 118.117 189.8 186.5 173.079C249.714 159.176 347.194 192.684 332 158.578C316.806 124.473 219.31 -8.4956 172.202 -3.00319C125.093 2.48922 60.5569 45.6676 44.8561 95.61Z" fill="#D1D1D1"/>
</mask>
<g mask="url(#mask0_881_58763)">
<path d="M295.958 145.229C297.4 164.257 261.696 169.578 261.696 169.578L153 169.579C153 169.579 224.557 79.362 243.055 94.2342C261.552 109.106 243.055 140.304 243.055 140.304C243.055 140.304 294.516 126.2 295.958 145.229Z" fill="#B4B7B9"/>
<path d="M285 146.579C266.299 149.371 229.79 161.591 216 170.579" stroke="#A0A2A4" stroke-width="2" stroke-linecap="round"/>
<path d="M231 118.579C220.24 123.772 197.731 140.616 179 170.579" stroke="#A0A2A4" stroke-width="2" stroke-linecap="round"/>
<path d="M190.909 197.34L120.383 193.771C113.647 193.362 108.1 186.518 109.093 179.847L130.876 33.2333C131.252 30.7004 132.543 28.3929 134.503 26.7462C136.464 25.0995 138.96 24.2277 141.52 24.2952L210.481 26.1184C211.928 26.1565 213.352 26.495 214.662 27.1123C215.972 27.7297 217.139 28.6126 218.09 29.7049C219.041 30.7971 219.754 32.0751 220.185 33.4576C220.616 34.8401 220.754 36.297 220.592 37.736L203.855 186.457C203.503 189.584 201.963 192.457 199.554 194.482C197.145 196.507 194.05 197.53 190.909 197.34Z" fill="#6E7071"/>
<path d="M192.803 201.041L121.575 198.379C119.43 198.3 117.35 197.623 115.57 196.424C113.79 195.225 112.381 193.552 111.503 191.594C110.675 189.737 109.104 186.823 109.047 183.006L110.983 182.263L132.714 38.4579C133.368 33.1985 134.078 29.1958 139.374 29.197L216.629 28.3197C217.633 29.0628 218.582 29.8752 219.472 30.751C221.865 33.2631 222.376 37.8977 221.603 41.7393L206.34 189.103C205.761 195.611 199.329 201.269 192.803 201.041Z" fill="#6E7071"/>
<path d="M194.039 193.978C193.08 194.235 192.086 194.334 191.096 194.272L119.983 190.64C118.816 190.57 117.676 190.258 116.635 189.723C115.595 189.188 114.678 188.443 113.941 187.535C113.205 186.626 112.665 185.574 112.357 184.446C112.049 183.318 111.98 182.138 112.152 180.981L134.02 32.7141C134.286 30.9227 135.201 29.2912 136.59 28.1294C137.979 26.9675 139.747 26.356 141.557 26.4109L210.414 29.2008C211.436 29.2277 212.442 29.4667 213.367 29.9026C214.292 30.3385 215.116 30.9618 215.787 31.733C216.459 32.5042 216.962 33.4064 217.267 34.3826C217.571 35.3587 217.669 36.3874 217.555 37.4035L200.801 186.113C200.603 187.954 199.85 189.692 198.643 191.096C197.435 192.501 195.83 193.506 194.039 193.978Z" fill="white"/>
<path d="M194.039 193.978C193.08 194.235 192.086 194.334 191.096 194.272L119.983 190.64C118.816 190.57 117.676 190.258 116.635 189.723C115.595 189.188 114.678 188.443 113.941 187.535C113.205 186.626 112.665 185.574 112.357 184.446C112.049 183.318 111.98 182.138 112.152 180.981L134.02 32.7141C134.286 30.9227 135.201 29.2912 136.59 28.1294C137.979 26.9675 139.747 26.356 141.557 26.4109L210.414 29.2008C211.436 29.2277 212.442 29.4667 213.367 29.9026C214.292 30.3385 215.116 30.9618 215.787 31.733C216.459 32.5042 216.962 33.4064 217.267 34.3826C217.571 35.3587 217.669 36.3874 217.555 37.4035L200.801 186.113C200.603 187.954 199.85 189.692 198.643 191.096C197.435 192.501 195.83 193.506 194.039 193.978Z" fill="#FAF9F9"/>
</g>
<path d="M140.284 76.0565C140.284 98.4121 118.506 116.535 91.6421 116.535C64.7778 116.535 43 98.4121 43 76.0565C43 53.7009 64.7778 35.5781 91.6421 35.5781C118.506 35.5781 140.284 53.7009 140.284 76.0565Z" fill="#A0A2A4"/>
<path d="M130.934 124.733L101.531 111.99L126.884 101.767L130.934 124.733Z" fill="#A0A2A4"/>
<path d="M77.1428 76.0585C77.1428 79.1536 74.6337 81.6627 71.5385 81.6627C68.4434 81.6627 65.9343 79.1536 65.9343 76.0585C65.9343 72.9633 68.4434 70.4542 71.5385 70.4542C74.6337 70.4542 77.1428 72.9633 77.1428 76.0585Z" fill="white"/>
<path d="M97.245 76.0583C97.245 79.1534 94.7358 81.6626 91.6407 81.6626C88.5455 81.6626 86.0364 79.1534 86.0364 76.0583C86.0364 72.9631 88.5455 70.454 91.6407 70.454C94.7358 70.454 97.245 72.9631 97.245 76.0583Z" fill="white"/>
<path d="M117.347 76.0583C117.347 79.1534 114.838 81.6626 111.743 81.6626C108.648 81.6626 106.139 79.1534 106.139 76.0583C106.139 72.9631 108.648 70.454 111.743 70.454C114.838 70.454 117.347 72.9631 117.347 76.0583Z" fill="white"/>
</g>
<defs>
<clipPath id="clip0_881_58763">
<rect width="328" height="184" fill="white"/>
</clipPath>
</defs>
</svg>
