<svg width="328" height="184" viewBox="0 0 328 184" fill="none" xmlns="http://www.w3.org/2000/svg">
<g clip-path="url(#clip0_599_45510)">
<path d="M46.6368 100.845C31.8557 148.012 120.473 187.138 179.984 174.008C239.494 160.878 281.493 114.189 267.189 81.979C252.886 49.7694 205.415 62.0676 161.066 67.2548C116.717 72.4419 61.4178 53.6788 46.6368 100.845Z" fill="#D1D1D1"/>
<path opacity="0.5" d="M99 121.078C99 140.132 83.5538 155.578 64.5 155.578C45.4462 155.578 30 140.132 30 121.078C30 102.024 45.4462 86.5781 64.5 86.5781C83.5538 86.5781 99 102.024 99 121.078Z" fill="#D1D1D1"/>
<mask id="mask0_599_45510" style="mask-type:alpha" maskUnits="userSpaceOnUse" x="43" y="-4" width="291" height="181">
<path d="M44.856 95.61C29.1552 145.552 118.117 189.8 186.5 173.079C249.714 159.176 347.194 192.684 332 158.578C316.806 124.473 219.31 -8.49557 172.202 -3.00315C125.093 2.48926 60.5567 45.6676 44.856 95.61Z" fill="#D1D1D1"/>
</mask>
<g mask="url(#mask0_599_45510)">
<path d="M295.958 145.229C297.4 164.257 261.696 169.578 261.696 169.578L153 169.579C153 169.579 224.557 79.362 243.054 94.2342C261.552 109.106 243.054 140.304 243.054 140.304C243.054 140.304 294.516 126.201 295.958 145.229Z" fill="#B4B7B9"/>
<path d="M285 146.579C266.299 149.371 229.79 161.591 216 170.579" stroke="#A0A2A4" stroke-width="2" stroke-linecap="round"/>
<path d="M231 118.579C220.24 123.772 197.731 140.616 179 170.579" stroke="#A0A2A4" stroke-width="2" stroke-linecap="round"/>
<path d="M190.909 197.34L120.383 193.772C113.647 193.362 108.1 186.519 109.093 179.847L130.876 33.2333C131.252 30.7005 132.542 28.3929 134.503 26.7463C136.464 25.0996 138.96 24.2277 141.52 24.2953L210.481 26.1184C211.928 26.1565 213.352 26.495 214.662 27.1124C215.972 27.7298 217.139 28.6126 218.09 29.7049C219.041 30.7972 219.754 32.0751 220.185 33.4576C220.615 34.8401 220.754 36.2971 220.592 37.7361L203.855 186.457C203.502 189.584 201.963 192.457 199.554 194.482C197.145 196.507 194.05 197.53 190.909 197.34Z" fill="#6E7071"/>
<path d="M192.803 201.041L121.575 198.379C119.43 198.3 117.35 197.623 115.57 196.424C113.79 195.225 112.381 193.552 111.503 191.594C110.676 189.737 109.104 186.823 109.047 183.006L110.983 182.263L132.715 38.458C133.368 33.1986 134.078 29.1959 139.374 29.1971L216.629 28.3198C217.633 29.0629 218.583 29.8753 219.472 30.7511C221.865 33.2632 222.376 37.8978 221.603 41.7394L206.341 189.103C205.761 195.611 199.33 201.269 192.803 201.041Z" fill="#6E7071"/>
<path d="M194.039 193.978C193.08 194.235 192.086 194.334 191.096 194.272L119.983 190.64C118.816 190.57 117.676 190.258 116.635 189.723C115.595 189.188 114.678 188.443 113.941 187.535C113.205 186.626 112.665 185.575 112.357 184.446C112.049 183.318 111.98 182.138 112.152 180.981L134.02 32.7143C134.286 30.9229 135.201 29.2914 136.59 28.1296C137.979 26.9677 139.747 26.3562 141.557 26.4111L210.414 29.201C211.437 29.2279 212.442 29.4669 213.367 29.9028C214.292 30.3387 215.116 30.962 215.787 31.7332C216.459 32.5044 216.962 33.4067 217.267 34.3828C217.571 35.3589 217.669 36.3876 217.555 37.4037L200.801 186.113C200.603 187.954 199.85 189.692 198.643 191.097C197.435 192.501 195.83 193.506 194.039 193.978Z" fill="white"/>
<path d="M194.039 193.978C193.08 194.235 192.086 194.334 191.096 194.272L119.983 190.64C118.816 190.57 117.676 190.258 116.635 189.723C115.595 189.188 114.678 188.443 113.941 187.535C113.205 186.626 112.665 185.575 112.357 184.446C112.049 183.318 111.98 182.138 112.152 180.981L134.02 32.7143C134.286 30.9229 135.201 29.2914 136.59 28.1296C137.979 26.9677 139.747 26.3562 141.557 26.4111L210.414 29.201C211.437 29.2279 212.442 29.4669 213.367 29.9028C214.292 30.3387 215.116 30.962 215.787 31.7332C216.459 32.5044 216.962 33.4067 217.267 34.3828C217.571 35.3589 217.669 36.3876 217.555 37.4037L200.801 186.113C200.603 187.954 199.85 189.692 198.643 191.097C197.435 192.501 195.83 193.506 194.039 193.978Z" fill="#FAF9F9"/>
</g>
<path d="M140.284 76.0565C140.284 98.4121 118.506 116.535 91.6421 116.535C64.7778 116.535 43 98.4121 43 76.0565C43 53.7009 64.7778 35.5781 91.6421 35.5781C118.506 35.5781 140.284 53.7009 140.284 76.0565Z" fill="#A0A2A4"/>
<g clip-path="url(#clip1_599_45510)">
<path d="M103 68.6666H106.667C107.153 68.6666 107.619 68.8597 107.963 69.2036C108.307 69.5474 108.5 70.0137 108.5 70.4999V92.4999C108.5 92.9861 108.307 93.4525 107.963 93.7963C107.619 94.1401 107.153 94.3333 106.667 94.3333H77.3333C76.8471 94.3333 76.3808 94.1401 76.037 93.7963C75.6932 93.4525 75.5 92.9861 75.5 92.4999V70.4999C75.5 70.0137 75.6932 69.5474 76.037 69.2036C76.3808 68.8597 76.8471 68.6666 77.3333 68.6666H81V66.8333C81 63.9159 82.1589 61.118 84.2218 59.0551C86.2847 56.9922 89.0826 55.8333 92 55.8333C94.9174 55.8333 97.7153 56.9922 99.7782 59.0551C101.841 61.118 103 63.9159 103 66.8333V68.6666ZM79.1667 72.3333V90.6666H104.833V72.3333H79.1667ZM90.1667 79.6666H93.8333V83.3333H90.1667V79.6666ZM82.8333 79.6666H86.5V83.3333H82.8333V79.6666ZM97.5 79.6666H101.167V83.3333H97.5V79.6666ZM99.3333 68.6666V66.8333C99.3333 64.8883 98.5607 63.0231 97.1854 61.6478C95.8102 60.2725 93.9449 59.4999 92 59.4999C90.0551 59.4999 88.1898 60.2725 86.8146 61.6478C85.4393 63.0231 84.6667 64.8883 84.6667 66.8333V68.6666H99.3333Z" fill="white"/>
</g>
<path d="M130.934 124.733L101.531 111.99L126.884 101.767L130.934 124.733Z" fill="#A0A2A4"/>
</g>
<defs>
<clipPath id="clip0_599_45510">
<rect width="328" height="184" fill="white"/>
</clipPath>
<clipPath id="clip1_599_45510">
<rect width="44" height="44" fill="white" transform="translate(70 54)"/>
</clipPath>
</defs>
</svg>
