<svg width="320" height="180" viewBox="0 0 320 180" fill="none" xmlns="http://www.w3.org/2000/svg">
<g clip-path="url(#clip0_590_34898)">
<path d="M263.948 92.8449C278.729 140.012 190.112 179.138 130.601 166.008C71.0906 152.878 29.0919 106.188 43.3956 73.9785C57.6992 41.7689 105.17 54.0672 149.519 59.2543C193.868 64.4415 249.167 45.6783 263.948 92.8449Z" fill="#EAF9F0"/>
<path opacity="0.5" d="M264 139.578C264 145.1 268.477 149.578 274 149.578C279.523 149.578 284 145.1 284 139.578C284 134.055 279.523 129.578 274 129.578C268.477 129.578 264 134.055 264 139.578Z" fill="#EAF9F0"/>
<mask id="mask0_590_34898" style="mask-type:alpha" maskUnits="userSpaceOnUse" x="-23" y="-12" width="345" height="181">
<path d="M265.729 87.6095C281.43 137.552 192.468 181.799 124.085 165.078C60.8715 151.176 -36.6086 184.683 -21.4149 150.578C-6.22125 116.473 91.275 -16.4961 138.383 -11.0036C180.689 -6.07121 436.5 -25.4224 259.474 72.5776C262.02 77.4961 264.128 82.5176 265.729 87.6095Z" fill="#EAF9F0"/>
</mask>
<g mask="url(#mask0_590_34898)">
<path d="M26.114 141.686C28.7149 158.608 50.7652 162.578 50.7652 162.578H160L113.747 137.222C113.747 137.222 90.6579 92.586 71.5046 95.7369C52.3513 98.8879 66.2719 137.222 66.2719 137.222C66.2719 137.222 23.5132 124.764 26.114 141.686Z" fill="#ADEDC8"/>
<path d="M44 143.578C64.8591 147.933 82.1377 156.67 94 164.578" stroke="#15A049" stroke-width="2" stroke-linecap="round"/>
<path d="M76 110.578C84.1193 117.269 99.9071 140.462 105 159.578" stroke="#15A049" stroke-width="2" stroke-linecap="round"/>
<path d="M114.112 197.105C106.902 196.653 98.7087 190.195 99.1988 183.764L96.0005 34.2697C96.0005 32.309 98.0516 29.6078 99.7724 28.3519C101.493 27.0959 105.142 26.5776 107.273 26.5776C107.875 26.5787 108.475 26.6293 109.062 26.7285L170.175 40.1847C172.981 40.6734 175.505 41.8303 177.374 43.4849C179.243 45.1394 180.359 47.204 180.558 49.374L197.856 190.77C197.856 192.583 197.333 193.962 197.17 194.769C196.865 196.269 195.67 197.574 194.266 198.712C192.41 200.209 190.229 201.068 187.52 201.068L114.112 197.105Z" fill="#D2E9D9"/>
<path d="M188.131 192.345C187.905 192.345 187.68 192.345 187.451 192.327L117.717 188.392C114.242 188.187 110.996 187.04 108.612 185.174C106.227 183.309 104.876 180.859 104.821 178.302L101.238 33.1065C101.214 32.3236 101.406 31.5453 101.8 30.8177C102.195 30.0901 102.785 29.428 103.535 28.8707C104.492 28.1484 105.687 27.6192 107.004 27.3339C108.321 27.0486 109.716 27.0169 111.055 27.2419L175.504 38.8458C178.311 39.3208 180.835 40.444 182.706 42.0502C184.576 43.6564 185.695 45.6607 185.896 47.7679L197.977 184.639C198.07 185.627 197.883 186.618 197.427 187.55C196.972 188.483 196.258 189.336 195.331 190.056C194.408 190.776 193.295 191.351 192.059 191.745C190.822 192.138 189.49 192.343 188.142 192.345H188.131Z" fill="#15A049"/>
<path d="M104.746 34.1715L108.326 178.04C108.38 180.181 109.516 182.232 111.513 183.794C113.511 185.356 116.228 186.319 119.139 186.496L187.604 190.657C188.684 190.711 189.766 190.595 190.78 190.317C191.794 190.039 192.714 189.606 193.481 189.046C194.247 188.486 194.842 187.812 195.224 187.069C195.607 186.327 195.768 185.533 195.699 184.742L183.624 47.8866C183.469 46.1339 182.546 44.465 180.991 43.1289C179.437 41.7928 177.335 40.8612 174.999 40.4733L111.782 29.973C110.93 29.8315 110.045 29.8339 109.194 29.9801C108.343 30.1263 107.549 30.4124 106.871 30.8169C106.193 31.2213 105.65 31.7335 105.282 32.3146C104.913 32.8958 104.73 33.5308 104.746 34.1715Z" fill="#EFFAF3"/>
<path d="M250.707 78.6914C250.707 99.741 229.506 116.805 203.354 116.805C177.201 116.805 156 99.741 156 78.6914C156 57.6417 177.201 40.5776 203.354 40.5776C229.506 40.5776 250.707 57.6417 250.707 78.6914Z" fill="#15A049"/>
<path fill-rule="evenodd" clip-rule="evenodd" d="M225.897 69.3308L200.655 94.5729L182.264 76.1835L188.794 69.6529L200.654 81.5124L219.366 62.8004L225.897 69.3308Z" fill="white"/>
<path d="M190.92 128.578L207.595 114.778H191.98L190.92 128.578Z" fill="#15A049"/>
</g>
<path d="M263.948 92.8449C278.729 140.012 190.112 179.138 130.601 166.008C71.0906 152.878 29.0919 106.188 43.3956 73.9785C57.6992 41.7689 105.17 54.0672 149.519 59.2543C193.868 64.4415 249.167 45.6783 263.948 92.8449Z" fill="#EAF9F0"/>
<path opacity="0.5" d="M264 139.578C264 145.1 268.477 149.578 274 149.578C279.523 149.578 284 145.1 284 139.578C284 134.055 279.523 129.578 274 129.578C268.477 129.578 264 134.055 264 139.578Z" fill="#EAF9F0"/>
<mask id="mask1_590_34898" style="mask-type:alpha" maskUnits="userSpaceOnUse" x="-23" y="-12" width="345" height="181">
<path d="M265.729 87.6095C281.43 137.552 192.468 181.799 124.085 165.078C60.8715 151.176 -36.6086 184.683 -21.4149 150.578C-6.22125 116.473 91.275 -16.4961 138.383 -11.0036C180.689 -6.07121 436.5 -25.4224 259.474 72.5776C262.02 77.4961 264.128 82.5176 265.729 87.6095Z" fill="#EAF9F0"/>
</mask>
<g mask="url(#mask1_590_34898)">
<path d="M26.114 141.686C28.7149 158.608 50.7652 162.578 50.7652 162.578H160L113.747 137.222C113.747 137.222 90.6579 92.586 71.5046 95.7369C52.3513 98.8879 66.2719 137.222 66.2719 137.222C66.2719 137.222 23.5132 124.764 26.114 141.686Z" fill="#ADEDC8"/>
<path d="M44 143.578C64.8591 147.933 82.1377 156.67 94 164.578" stroke="#15A049" stroke-width="2" stroke-linecap="round"/>
<path d="M76 110.578C84.1193 117.269 99.9071 140.462 105 159.578" stroke="#15A049" stroke-width="2" stroke-linecap="round"/>
<path d="M114.112 197.105C106.902 196.653 98.7087 190.195 99.1988 183.764L96.0005 34.2697C96.0005 32.309 98.0516 29.6078 99.7724 28.3519C101.493 27.0959 105.142 26.5776 107.273 26.5776C107.875 26.5787 108.475 26.6293 109.062 26.7285L170.175 40.1847C172.981 40.6734 175.505 41.8303 177.374 43.4849C179.243 45.1394 180.359 47.204 180.558 49.374L197.856 190.77C197.856 192.583 197.333 193.962 197.17 194.769C196.865 196.269 195.67 197.574 194.266 198.712C192.41 200.209 190.229 201.068 187.52 201.068L114.112 197.105Z" fill="#096530"/>
<path d="M188.131 192.345C187.905 192.345 187.68 192.345 187.451 192.327L117.717 188.392C114.242 188.187 110.996 187.04 108.612 185.174C106.227 183.309 104.876 180.859 104.821 178.302L101.238 33.1065C101.214 32.3236 101.406 31.5453 101.8 30.8177C102.195 30.0901 102.785 29.428 103.535 28.8707C104.492 28.1484 105.687 27.6192 107.004 27.3339C108.321 27.0486 109.716 27.0169 111.055 27.2419L175.504 38.8458C178.311 39.3208 180.835 40.444 182.706 42.0502C184.576 43.6564 185.695 45.6607 185.896 47.7679L197.977 184.639C198.07 185.627 197.883 186.618 197.427 187.55C196.972 188.483 196.258 189.336 195.331 190.056C194.408 190.776 193.295 191.351 192.059 191.745C190.822 192.138 189.49 192.343 188.142 192.345H188.131Z" fill="#097938"/>
<path d="M104.746 34.1715L108.326 178.04C108.38 180.181 109.516 182.232 111.513 183.794C113.511 185.356 116.228 186.319 119.139 186.496L187.604 190.657C188.684 190.711 189.766 190.595 190.78 190.317C191.794 190.039 192.714 189.606 193.481 189.046C194.247 188.486 194.842 187.812 195.224 187.069C195.607 186.327 195.768 185.533 195.699 184.742L183.624 47.8866C183.469 46.1339 182.546 44.465 180.991 43.1289C179.437 41.7928 177.335 40.8612 174.999 40.4733L111.782 29.973C110.93 29.8315 110.045 29.8339 109.194 29.9801C108.343 30.1263 107.549 30.4124 106.871 30.8169C106.193 31.2213 105.65 31.7335 105.282 32.3146C104.913 32.8958 104.73 33.5308 104.746 34.1715Z" fill="#EFFAF3"/>
<path d="M250.707 78.6914C250.707 99.741 229.506 116.805 203.354 116.805C177.201 116.805 156 99.741 156 78.6914C156 57.6417 177.201 40.5776 203.354 40.5776C229.506 40.5776 250.707 57.6417 250.707 78.6914Z" fill="#15A049"/>
<path fill-rule="evenodd" clip-rule="evenodd" d="M225.897 69.3308L200.655 94.5729L182.264 76.1835L188.794 69.6529L200.654 81.5124L219.366 62.8004L225.897 69.3308Z" fill="white"/>
<path d="M190.92 128.578L207.595 114.778H191.98L190.92 128.578Z" fill="#15A049"/>
</g>
</g>
<defs>
<clipPath id="clip0_590_34898">
<rect width="320" height="180" fill="white"/>
</clipPath>
</defs>
</svg>
