<svg width="12" height="12" viewBox="0 0 12 12" fill="none" xmlns="http://www.w3.org/2000/svg">
<path d="M8.37511 1.78V1C8.37511 0.795 8.20511 0.625 8.00011 0.625C7.79511 0.625 7.62511 0.795 7.62511 1V1.75H4.37511V1C4.37511 0.795 4.20511 0.625 4.00011 0.625C3.79511 0.625 3.62511 0.795 3.62511 1V1.78C2.27511 1.905 1.62011 2.71 1.52011 3.905C1.51011 4.05 1.63011 4.17 1.77011 4.17H10.2301C10.3751 4.17 10.4951 4.045 10.4801 3.905C10.3801 2.71 9.72511 1.905 8.37511 1.78Z" fill="#1A73B5"/>
<path opacity="0.4" d="M10 4.91992C10.275 4.91992 10.5 5.14492 10.5 5.41992V8.49992C10.5 9.99992 9.75 10.9999 8 10.9999H4C2.25 10.9999 1.5 9.99992 1.5 8.49992V5.41992C1.5 5.14492 1.725 4.91992 2 4.91992H10Z" fill="#1A73B5"/>
<path d="M4.25 7.49994C4.12 7.49994 3.99 7.44493 3.895 7.35493C3.805 7.25993 3.75 7.12994 3.75 6.99994C3.75 6.86994 3.805 6.73994 3.895 6.64494C4.035 6.50494 4.255 6.45993 4.44 6.53993C4.505 6.56493 4.56 6.59994 4.605 6.64494C4.695 6.73994 4.75 6.86994 4.75 6.99994C4.75 7.12994 4.695 7.25993 4.605 7.35493C4.51 7.44493 4.38 7.49994 4.25 7.49994Z" fill="#1A73B5"/>
<path d="M6 7.49994C5.87 7.49994 5.74 7.44493 5.645 7.35493C5.555 7.25993 5.5 7.12994 5.5 6.99994C5.5 6.86994 5.555 6.73994 5.645 6.64494C5.69 6.59994 5.745 6.56493 5.81 6.53993C5.995 6.45993 6.215 6.50494 6.355 6.64494C6.445 6.73994 6.5 6.86994 6.5 6.99994C6.5 7.12994 6.445 7.25993 6.355 7.35493C6.33 7.37493 6.305 7.39493 6.28 7.41493C6.25 7.43493 6.22 7.44994 6.19 7.45994C6.16 7.47494 6.13 7.48494 6.1 7.48994C6.065 7.49494 6.035 7.49994 6 7.49994Z" fill="#1A73B5"/>
<path d="M7.75 7.50001C7.62 7.50001 7.49 7.445 7.395 7.355C7.305 7.26 7.25 7.13001 7.25 7.00001C7.25 6.87001 7.305 6.74001 7.395 6.64501C7.445 6.60001 7.495 6.565 7.56 6.54C7.65 6.5 7.75 6.49 7.85 6.51C7.88 6.515 7.91 6.525 7.94 6.54C7.97 6.55 8 6.56501 8.03 6.58501C8.055 6.60501 8.08 6.62501 8.105 6.64501C8.195 6.74001 8.25 6.87001 8.25 7.00001C8.25 7.13001 8.195 7.26 8.105 7.355C8.08 7.375 8.055 7.395 8.03 7.415C8 7.435 7.97 7.45001 7.94 7.46001C7.91 7.47501 7.88 7.48501 7.85 7.49001C7.815 7.49501 7.78 7.50001 7.75 7.50001Z" fill="#1A73B5"/>
<path d="M4.25 9.25001C4.185 9.25001 4.12 9.23501 4.06 9.21001C3.995 9.18501 3.945 9.15 3.895 9.105C3.805 9.01 3.75 8.88001 3.75 8.75001C3.75 8.62001 3.805 8.49001 3.895 8.39501C3.945 8.35001 3.995 8.315 4.06 8.29C4.15 8.25 4.25 8.24 4.35 8.26C4.38 8.265 4.41 8.275 4.44 8.29C4.47 8.3 4.5 8.31501 4.53 8.33501C4.555 8.35501 4.58 8.37501 4.605 8.39501C4.695 8.49001 4.75 8.62001 4.75 8.75001C4.75 8.88001 4.695 9.01 4.605 9.105C4.58 9.125 4.555 9.15 4.53 9.165C4.5 9.185 4.47 9.20001 4.44 9.21001C4.41 9.22501 4.38 9.23501 4.35 9.24001C4.315 9.24501 4.285 9.25001 4.25 9.25001Z" fill="#1A73B5"/>
<path d="M6 9.25009C5.87 9.25009 5.74 9.19509 5.645 9.10509C5.555 9.01009 5.5 8.88009 5.5 8.75009C5.5 8.62009 5.555 8.4901 5.645 8.3951C5.83 8.2101 6.17 8.2101 6.355 8.3951C6.445 8.4901 6.5 8.62009 6.5 8.75009C6.5 8.88009 6.445 9.01009 6.355 9.10509C6.26 9.19509 6.13 9.25009 6 9.25009Z" fill="#1A73B5"/>
<path d="M7.75 9.25009C7.62 9.25009 7.49 9.19509 7.395 9.10509C7.305 9.01009 7.25 8.88009 7.25 8.75009C7.25 8.62009 7.305 8.4901 7.395 8.3951C7.58 8.2101 7.92 8.2101 8.105 8.3951C8.195 8.4901 8.25 8.62009 8.25 8.75009C8.25 8.88009 8.195 9.01009 8.105 9.10509C8.01 9.19509 7.88 9.25009 7.75 9.25009Z" fill="#1A73B5"/>
</svg>
